
<?xml version="1.0" encoding="UTF-8"?>
<!DOCTYPE svg PUBLIC "-//W3C//DTD SVG 20010904//EN"
 "http://www.w3.org/TR/2001/REC-SVG-20010904/DTD/svg10.dtd">
<svg version="1.0" xmlns="http://www.w3.org/2000/svg"
 width="225.000000pt" height="225.000000pt" viewBox="0 0 225.000000 225.000000"
 preserveAspectRatio="xMidYMid meet">

<g transform="translate(0.000000,225.000000) scale(0.100000,-0.100000)"
fill="#000000" stroke="none">
<path d="M945 1499 c-22 -22 -80 -68 -130 -102 -136 -93 -184 -147 -210 -237
-6 -22 -2 -19 31 16 43 44 97 83 189 133 33 18 84 51 113 73 l53 39 36 -30 36
-30 34 26 34 26 -68 63 c-37 35 -70 63 -73 64 -3 0 -24 -18 -45 -41z"/>
<path d="M1309 1504 c-18 -20 -85 -73 -148 -117 -131 -94 -169 -138 -196 -227
-6 -21 -2 -19 31 16 43 44 97 83 189 133 33 18 84 51 113 72 l52 40 53 -40
c28 -21 79 -54 112 -72 95 -52 171 -106 200 -141 24 -30 26 -31 20 -8 -15 51
-61 123 -100 155 -22 18 -78 60 -125 93 -47 33 -101 76 -119 96 -19 20 -38 36
-41 36 -3 0 -22 -16 -41 -36z"/>
<path d="M1233 1298 c-31 -15 -29 -20 14 -43 20 -11 59 -41 86 -68 36 -35 47
-41 41 -25 -20 67 -77 148 -102 147 -9 0 -27 -5 -39 -11z"/>
<path d="M410 1131 c57 -101 180 -166 444 -236 143 -37 225 -69 276 -105 34
-24 36 -21 16 19 -42 80 -150 135 -411 210 -99 28 -215 69 -257 90 -51 25 -74
33 -68 22z"/>
<path d="M1860 1109 c-42 -21 -157 -62 -264 -93 -265 -78 -360 -127 -402 -208
-18 -35 -12 -47 12 -24 30 30 107 63 224 96 209 57 254 72 315 99 73 34 153
97 178 140 10 17 17 30 15 30 -2 -1 -37 -19 -78 -40z"/>
<path d="M561 844 c41 -44 128 -80 237 -98 23 -4 32 -2 32 8 0 9 -17 16 -47
21 -56 8 -123 33 -123 46 0 5 -10 9 -23 9 -12 0 -40 9 -61 20 l-39 19 24 -25z"/>
<path d="M1245 754 c-50 -26 -51 -34 -2 -16 25 10 49 21 53 25 13 13 -20 7
-51 -9z"/>
</g>
</svg>
